<svg width="234" height="99" viewBox="0 0 234 99" xmlns="http://www.w3.org/2000/svg">
  <g fill="none" fill-rule="evenodd">
    <path d="M4.2666 98H.874v-8.455h3.375c1.5 0 2.4844.832 2.4844 2.1093 0 .8965-.6621 1.6992-1.5059 1.8398v.047c1.1485.1288 1.922.9433 1.922 2.0683C7.1494 97.0977 6.0654 98 4.2665 98zm-2.08-7.3828v2.5254h1.4706c1.1367 0 1.7637-.4688 1.7637-1.3067 0-.7851-.539-1.2187-1.4883-1.2187h-1.746zm0 6.3105H3.997c1.1836 0 1.8105-.4863 1.8105-1.4004 0-.914-.6445-1.3828-1.8867-1.3828H2.1865v2.7832zm12.8437-.0644V98h-5.25v-8.455h1.3125v7.3183h3.9375zM23.163 98l-.7735-2.2852H19.167L18.3936 98h-1.3653l3.0528-8.455h1.418L24.5517 98H23.163zm-2.4024-7.0488l-1.2597 3.709h2.5547l-1.2598-3.709h-.0352zm6 7.0488v-.8965l4.629-6.3808v-.047h-4.4883V89.545h6.0996v.8965l-4.6114 6.3809v.041h4.7227V98h-6.3516zm10.4942 0h-1.3125v-8.455h1.3125V98zm4.336 0h-1.2774v-8.455h1.1894l4.3828 6.2343h.047v-6.2344H47.21V98h-1.1836l-4.3828-6.2285h-.0528V98zm15.9609-3.5156c0 2.291-1.3536 3.6562-3.6446 3.6562-2.4199 0-3.9433-1.6933-3.9433-4.4062 0-2.666 1.5175-4.3301 3.9257-4.3301 1.881 0 3.3047 1.1133 3.5977 2.8008h-1.3477c-.3164-1.0489-1.1425-1.6524-2.244-1.6524-1.6173 0-2.59 1.1836-2.59 3.17 0 2.0214 1.002 3.2695 2.6133 3.2695 1.3711 0 2.3204-.879 2.338-2.1621v-.1465h-2.1856V93.623h3.4805v.8614zM65.579 98h-1.3125v-8.455h5.2793v1.1308H65.579v2.6777h3.6328v1.1074H65.579V98zm11.5313 0l-.7735-2.2852h-3.2226L72.3408 98h-1.3652l3.0527-8.455h1.418L78.499 98h-1.3886zm-2.4024-7.0488l-1.2598 3.709h2.5547l-1.2597-3.709h-.0352zm5.7832 4.6933h1.295c.0937.838.9081 1.3887 2.0214 1.3887 1.0664 0 1.834-.5508 1.834-1.3066 0-.6563-.4629-1.0489-1.5586-1.3184l-1.0957-.2637c-1.5527-.375-2.2734-1.1015-2.2734-2.2793 0-1.459 1.2715-2.4609 3.0761-2.4609 1.7871 0 3.0118 1.002 3.0528 2.461h-1.2774c-.0761-.8438-.7734-1.3536-1.793-1.3536-1.0195 0-1.7167.5156-1.7167 1.2656 0 .5977.4453.9493 1.5351 1.2188l.9317.2285c1.7343.4102 2.455 1.1074 2.455 2.3438 0 1.582-1.2597 2.5722-3.2636 2.5722-1.875 0-3.1407-.9668-3.2227-2.496zM93.0654 98H91.753v-7.3242h-2.5898v-1.1309h6.4863v1.1309h-2.584V98zm10.3946-7.3535v3.041h1.8398c1.0137 0 1.5938-.5566 1.5938-1.5234 0-.9434-.6153-1.5176-1.629-1.5176H103.46zm0 4.1015V98h-1.3125v-8.455h3.2754c1.7402 0 2.8242 1.0077 2.8242 2.584 0 1.1425-.6094 2.0683-1.6407 2.414L108.499 98h-1.5117l-1.7227-3.252H103.46zm12.9199 2.1153V98h-5.3672v-8.455h5.3672v1.1308h-4.0547v2.4726h3.8379v1.0899h-3.838v2.625h4.0548zM124.7354 98l-.7735-2.2852h-3.2226L119.9658 98h-1.3652l3.0527-8.455h1.418L126.124 98h-1.3886zm-2.4024-7.0488l-1.2598 3.709h2.5547l-1.2597-3.709h-.0352zm9.4922 7.1894c-2.373 0-3.873-1.6758-3.873-4.371 0-2.6778 1.5117-4.3653 3.873-4.3653 1.916 0 3.3633 1.1777 3.586 2.9414h-1.3008c-.2344-1.084-1.1368-1.793-2.2852-1.793-1.5352 0-2.5313 1.2598-2.5313 3.2168 0 1.9746.9844 3.2227 2.5372 3.2227 1.1777 0 2.0156-.6035 2.2793-1.623h1.3066c-.3223 1.746-1.6465 2.7714-3.5918 2.7714zM141.1533 98h-1.3125v-7.3242h-2.5898v-1.1309h6.4863v1.1309h-2.584V98zm10.3946-8.455v5.373c0 1.207.7617 2.0566 2.1093 2.0566 1.3477 0 2.1153-.8496 2.1153-2.0566v-5.373h1.3066v5.4843c0 1.8223-1.3008 3.1113-3.4219 3.1113-2.121 0-3.4218-1.289-3.4218-3.1113v-5.4844h1.3125zM161.4502 98h-1.3125v-8.455h1.3125V98zm6.9902-8.455h3.17c1.6406 0 2.7832 1.1308 2.7832 2.7773 0 1.6523-1.166 2.789-2.8243 2.789h-1.8164V98h-1.3125v-8.455zm1.3125 1.1073v3.3575h1.5059c1.1426 0 1.793-.6153 1.793-1.6817s-.6504-1.6758-1.7872-1.6758h-1.5117zm8.6016-.0058v3.041h1.8398c1.0137 0 1.5938-.5566 1.5938-1.5234 0-.9434-.6152-1.5176-1.629-1.5176h-1.8046zm0 4.1015V98h-1.3125v-8.455h3.2754c1.7402 0 2.8242 1.0077 2.8242 2.584 0 1.1425-.6094 2.0683-1.6406 2.414L183.3936 98h-1.5118l-1.7226-3.252h-1.8047zM187.2197 98h-1.3125v-8.455h1.3125V98zm11.6133 0h-1.2012v-6.2227h-.041l-2.5488 6.1582h-.9727l-2.5547-6.1582h-.041V98h-1.1953v-8.455h1.5176l2.7363 6.6737h.0469l2.7305-6.6738h1.5234V98zm4.3711 0h-1.3125v-8.455h1.3125V98zm6.4688 0h-1.3125v-7.3242h-2.5899v-1.1309h6.4863v1.1309h-2.584V98zm6.4628 0h-1.3125v-8.455h1.3125V98zm6.8848 0h-1.4355l-3.0176-8.455h1.4238l2.3027 6.9784h.0352l2.3086-6.9785h1.4004L223.0205 98zm10.8164-1.1367V98h-5.3672v-8.455h5.3672v1.1308h-4.0547v2.4726h3.838v1.0899h-3.838v2.625h4.0547z" fill="#435A6F"/>
    <path d="M124.8908 34.6316H114V13.3684h10.5342c4.383 0 6.9534 1.9893 6.9534 5.3047 0 2.4461-1.872 4.288-4.3533 4.5975v.1179c2.8973.0737 5.319 2.2398 5.319 5.0542 0 3.7281-2.9715 6.189-7.5625 6.189zm-4.5911-16.9752v4.229h2.4367c1.6195 0 2.6298-.8399 2.6298-2.1218 0-1.3115-.9509-2.1072-2.5407-2.1072h-2.5258zm0 12.6872h2.6893c1.9463 0 3.0607-.8694 3.0607-2.4755 0-1.5178-1.1292-2.402-3.0162-2.402h-2.7338v4.8775zM144.72 13c6.6265 0 10.8016 4.2143 10.8016 11.0074 0 6.793-4.175 10.9926-10.8016 10.9926-6.6415 0-10.8016-4.1996-10.8016-10.9926 0-6.793 4.175-11.0074 10.8016-11.0074zm0 4.9806c-2.6299 0-4.383 2.343-4.383 6.0268 0 3.669 1.7383 6.012 4.383 6.012 2.6447 0 4.383-2.343 4.383-6.012 0-3.6839-1.7532-6.0268-4.383-6.0268zm11.0928 16.651l6.3146-10.6537V23.86l-6.3295-10.4916h7.3398l3.3727 6.7783h.1189l3.3875-6.7783H177l-6.6414 10.521v.118l6.6117 10.6242h-7.0129l-3.6847-6.4099h-.1337l-3.67 6.41h-6.6562zM53 0h51v48H53z" fill="#092744"/>
    <path d="M70.4466 15v11.4155c0 1.9673.9635 3.0416 2.7234 3.0416 1.7598 0 2.7233-1.0743 2.7233-3.0416V15h5.4466v12.0238C81.34 31.282 78.0642 34 73.17 34S65 31.282 65 27.0238V15h5.4466zM91 33.6764h-5.4466V15H91v18.6764z" fill="#FFF"/>
  </g>
</svg>
