<svg width="234" height="99" viewBox="0 0 234 99" version="1.1" xmlns="http://www.w3.org/2000/svg" xmlns:xlink="http://www.w3.org/1999/xlink"><title>Group 2</title><desc>Created with Sketch.</desc><g id="Artboard" stroke="none" stroke-width="1" fill="none" fill-rule="evenodd" transform="translate(-585.000000, -296.000000)"><g id="Group-3" transform="translate(259.000000, 237.000000)"><g id="Group-2" transform="translate(326.000000, 59.000000)"><text id="Blazing-Fast-React-U" font-family="SFUIDisplay-Medium, SF UI Display" font-size="12" font-weight="400" letter-spacing="1.5" fill="#435A6F"><tspan x="16.958" y="98">Blazing Fast React UI Primitive</tspan></text><g id="Group" transform="translate(53.000000, 0.000000)"><path d="M71.8907599,34.6316142 L61,34.6316142 L61,13.3683858 L71.5341729,13.3683858 C75.9172209,13.3683858 78.4876185,15.3576691 78.4876185,18.6731413 C78.4876185,21.119223 76.615537,22.961152 74.1342861,23.2705961 L74.1342861,23.3884796 C77.0315551,23.4621567 79.4533748,25.6282652 79.4533748,28.4427328 C79.4533748,32.1707971 76.4818169,34.6316142 71.8907599,34.6316142 Z M67.2997028,17.6563965 L67.2997028,21.8854655 L69.7363804,21.8854655 C71.3558794,21.8854655 72.3662091,21.0455459 72.3662091,19.7635633 C72.3662091,18.4521098 71.4153106,17.6563965 69.8255271,17.6563965 L67.2997028,17.6563965 Z M67.2997028,30.3436035 L69.9889628,30.3436035 C71.9353332,30.3436035 73.0496675,29.474213 73.0496675,27.8680509 C73.0496675,26.3503014 71.9204754,25.4661755 70.0335362,25.4661755 L67.2997028,25.4661755 L67.2997028,30.3436035 Z M91.719966,13 C98.3465403,13 102.521579,17.2143336 102.521579,24.0073677 C102.521579,30.8004019 98.3465403,35 91.719966,35 C85.078534,35 80.9183529,30.8004019 80.9183529,24.0073677 C80.9183529,17.2143336 85.0933918,13 91.719966,13 Z M91.719966,17.980576 C89.0901373,17.980576 87.3369181,20.3235097 87.3369181,24.0073677 C87.3369181,27.6764903 89.0752795,30.019424 91.719966,30.019424 C94.3646526,30.019424 96.103014,27.6764903 96.103014,24.0073677 C96.103014,20.3235097 94.3497948,17.980576 91.719966,17.980576 Z M102.812792,34.6316142 L109.127352,23.9778969 L109.127352,23.8600134 L102.797934,13.3683858 L110.137682,13.3683858 L113.5104,20.1466845 L113.629263,20.1466845 L117.016839,13.3683858 L124,13.3683858 L117.358568,23.8894843 L117.358568,24.0073677 L123.970284,34.6316142 L116.957408,34.6316142 L113.272676,28.2217013 L113.138956,28.2217013 L109.469082,34.6316142 L102.812792,34.6316142 Z" id="box" fill="#092744"/><rect id="Rectangle" fill="#092744" x="0" y="0" width="51" height="48"/><path d="M17.4466403,15 L17.4466403,26.4155313 C17.4466403,28.3828338 18.4100791,29.4570845 20.1699605,29.4570845 C21.9298419,29.4570845 22.8932806,28.3828338 22.8932806,26.4155313 L22.8932806,15 L28.3399209,15 L28.3399209,27.023842 C28.3399209,31.2820163 25.0642292,34 20.1699605,34 C15.2756917,34 12,31.2820163 12,27.023842 L12,15 L17.4466403,15 Z M38,33.6764305 L32.5533597,33.6764305 L32.5533597,15 L38,15 L38,33.6764305 Z" id="ui" fill="#FFF"/></g></g></g></g></svg>